<?xml version="1.0" standalone="no"?>
<!DOCTYPE svg PUBLIC "-//W3C//DTD SVG 20010904//EN"
 "http://www.w3.org/TR/2001/REC-SVG-20010904/DTD/svg10.dtd">
<svg version="1.0" xmlns="http://www.w3.org/2000/svg"
 width="460.000000pt" height="460.000000pt" viewBox="0 0 460.000000 460.000000"
 preserveAspectRatio="xMidYMid meet">

<g transform="translate(0.000000,460.000000) scale(0.100000,-0.100000)"
fill="#000000" stroke="none">
<path d="M3370 1320 c0 -14 -7 -20 -21 -20 -19 0 -21 -5 -17 -52 l3 -53 -57
-3 -58 -3 0 -39 c0 -33 -3 -40 -20 -40 -13 0 -20 -7 -20 -20 0 -13 -7 -20 -20
-20 -13 0 -20 -7 -20 -20 0 -17 -7 -20 -40 -20 -29 0 -40 -4 -40 -15 0 -8 -7
-15 -15 -15 -8 0 -15 -9 -15 -20 0 -13 -7 -20 -20 -20 -13 0 -20 -7 -20 -20 0
-13 -7 -20 -20 -20 -18 0 -20 -4 -14 -35 6 -33 5 -35 -20 -35 -27 0 -27 -1
-20 -45 l6 -45 -41 0 c-30 0 -41 -4 -41 -15 0 -11 -11 -15 -40 -15 -33 0 -40
-3 -40 -20 0 -13 -7 -20 -20 -20 -11 0 -20 -7 -20 -15 0 -8 -7 -15 -15 -15
-11 0 -15 -11 -15 -40 0 -36 -2 -40 -25 -40 -18 0 -25 -5 -25 -20 0 -13 -7
-20 -20 -20 -15 0 -20 -7 -20 -26 0 -25 -2 -25 -41 -19 l-41 7 7 -41 c6 -37 5
-41 -14 -41 -18 0 -21 -6 -21 -40 0 -29 -4 -40 -15 -40 -8 0 -15 -7 -15 -15 0
-8 -9 -15 -20 -15 -13 0 -20 7 -20 20 0 15 -7 20 -25 20 -22 0 -25 -4 -25 -40
0 -32 4 -40 18 -40 17 1 185 21 325 39 101 14 343 95 477 161 197 96 334 195
502 363 62 62 119 120 127 130 14 18 26 6 -200 217 -56 52 -116 110 -132 128
-26 26 -38 32 -74 32 -36 0 -43 -3 -43 -20z"/>
</g>
</svg>
